<svg xmlns="http://www.w3.org/2000/svg" version="1.1" xmlns:xlink="http://www.w3.org/1999/xlink" xmlns:svgjs="http://svgjs.dev/svgjs" width="128" height="128" viewBox="0 0 128 128"><g transform="matrix(0.8046875,0,0,0.8046875,12.76075263157896,16.748631950315833)"><svg viewBox="0 0 95 88" data-background-color="#ffffff" preserveAspectRatio="xMidYMid meet" height="118" width="128" xmlns="http://www.w3.org/2000/svg" xmlns:xlink="http://www.w3.org/1999/xlink"><g id="tight-bounds" transform="matrix(1,0,0,1,-0.24050000000001148,-0.2087041540527821)"><svg viewBox="0 0 95.481 88.41740830810558" height="88.41740830810558" width="95.481"><g><svg viewBox="0 0 95.481 88.41740830810558" height="88.41740830810558" width="95.481"><g><svg viewBox="0 0 95.481 88.41740830810558" height="88.41740830810558" width="95.481"><g id="textblocktransform"><svg viewBox="0 0 95.481 88.41740830810558" height="88.41740830810558" width="95.481" id="textblock"><g><svg viewBox="0 0 95.481 88.41740830810558" height="88.41740830810558" width="95.481"><g><svg viewBox="0 0 95.481 88.41740830810558" height="88.41740830810558" width="95.481"><g><svg xmlns="http://www.w3.org/2000/svg" xmlns:xlink="http://www.w3.org/1999/xlink" version="1.1" x="0" y="0" viewBox="-346 260.122 99.75800000000001 92.37799999999999" enable-background="new -346 256 100 100" xml:space="preserve" height="88.41740830810558" width="95.481" class="icon-icon-0" dataFillPaletteColor="accent" id="icon-0"><path d="M-270.408 270.013l-3.945-3.996h-23.472c-2.018-3.521-5.812-5.895-10.159-5.895-6.464 0-11.704 5.238-11.704 11.702 0 6.463 5.24 11.705 11.704 11.705 4.401 0 8.23-2.432 10.23-6.02h4.589l3.641-3.688 2.799 2.837 2.802-2.837 2.8 2.837 2.847-2.886 2.918 2.955 0.069-0.023 4.899-4.966C-269.826 271.172-269.791 270.641-270.408 270.013zM-313.099 274.786c-1.737 0-3.144-1.406-3.144-3.143 0-1.735 1.407-3.144 3.144-3.144 1.736 0 3.143 1.407 3.143 3.144C-309.958 273.379-311.363 274.786-313.099 274.786z" fill="#bb84e8" dataFillPaletteColor="accent"></path><path d="M-251.027 315.444v32.271h-11.866l0.007-57.289h-7.502v7.668h-7.786v-7.668h-7.503v7.668h-6.799v-7.668h-7.502v7.668h-6.729v-7.668h-7.503v7.668h-7.591v-7.668h-7.538l0.021 57.289h-11.897v-32.271H-346V352.5h38.536v-16.386h8.454v16.385l52.768 0.001v-37.056H-251.027zM-270.393 314.429h-8.388v-8.389h8.388V314.429zM-313.425 328.335h-8.388v-8.388h8.388V328.335zM-313.425 314.429h-8.388v-4.206h0.012v-4.183h8.376V314.429zM-299.088 328.335h-8.377v-8.388h8.377V328.335zM-299.088 314.429h-8.377v-8.389h8.377V314.429zM-284.74 328.335h-8.376v-8.388h8.376V328.335zM-284.74 314.429h-8.376v-8.389h8.376V314.429zM-278.78 319.947h8.388v8.388h-8.388V319.947z" fill="#bb84e8" dataFillPaletteColor="accent"></path></svg></g></svg></g></svg></g></svg></g></svg></g></svg></g><defs></defs></svg><rect width="95.481" height="88.41740830810558" fill="none" stroke="none" visibility="hidden"></rect></g></svg></g></svg>